<svg aria-hidden="true" xmlns="http://www.w3.org/2000/svg">
  <defs>
    <symbol id="icon-instagram" viewBox="0 0 32 32">
      <path d="M22 0H10C4.477 0 0 4.477 0 10v12c0 5.523 4.477 10 10 10h12c5.523 0 10-4.477 10-10V10c0-5.523-4.477-10-10-10zm7.002 22a7.009 7.009 0 0 1-7.001 7h-12a7.009 7.009 0 0 1-7-7V10a7.009 7.009 0 0 1 7-7h12a7.009 7.009 0 0 1 7.002 7v12z"/>
      <path d="M16 8a8 8 0 0 0 0 16 8 8 0 0 0 0-16zm0 13a5.008 5.008 0 0 1-5-5 5.007 5.007 0 0 1 5-5 5.007 5.007 0 0 1 5.002 5 5.008 5.008 0 0 1-5.001 5zm8.602-12.534a1.066 1.066 0 0 0 0-2.132 1.066 1.066 0 0 0 0 2.132z"/>
    </symbol>
    <symbol id="icon-vk" viewBox="0 0 58 32">
      <path d="M57.664 28.541c-.157-.25-1.123-2.278-5.78-6.444-4.873-4.361-4.218-3.651 1.652-11.191 3.575-4.593 5.004-7.398 4.556-8.596-.425-1.143-3.055-.841-3.055-.841l-8.742.049s-.649-.084-1.132.192c-.468.273-.771.908-.771.908s-1.385 3.555-3.232 6.575c-3.895 6.38-5.455 6.714-6.092 6.319-1.481-.922-1.108-3.709-1.108-5.684 0-6.182.969-8.756-1.897-9.425-.951-.218-1.649-.367-4.084-.39-3.119-.032-5.76.009-7.258.713-.995.471-1.763 1.519-1.295 1.58.579.073 1.891.337 2.583 1.251.899 1.172.864 3.817.864 3.817s.518 7.273-1.201 8.177c-1.184.623-2.801-.643-6.275-6.429-1.777-2.973-3.121-6.249-3.121-6.249s-.256-.611-.719-.937c-.561-.396-1.347-.524-1.347-.524l-8.314.058s-1.251.032-1.708.553c-.407.465-.032 1.425-.032 1.425s6.511 14.679 13.876 22.08c6.761 6.784 14.435 6.339 14.435 6.339h3.476s1.05-.113 1.585-.669c.495-.512.477-1.475.477-1.475s-.07-4.497 2.097-5.158c2.135-.655 4.879 4.346 7.782 6.269 2.196 1.455 3.869 1.135 3.869 1.135l7.767-.102s4.067-.244 2.141-3.325z"/>
    </symbol>
    <symbol id="menu-close" viewBox="0 0 32 32">
      <path d="M3.62 0l27.153 27.153-3.62 3.62-27.153-27.153z"/>
      <path d="M0.026 27.178l27.155-27.153 3.62 3.62-27.153 27.153z"/>
    </symbol>
    <symbol id="menu-open" viewBox="0 0 48 32">
      <path d="M0 0h48v6.4h-48zM0 12.8h48v6.4h-48zM0 25.6h48v6.4h-48z"/>
    </symbol>
		<symbol id="list-open" viewBox="0 0 12 5">
			<path d="M6 5L0.803848 0.5L11.1962 0.5L6 5Z" fill="#222222"/>
    </symbol>
		<symbol id="list-close" viewBox="0 0 12 5">
			<path d="M6 0L11.1962 4.5H0.803848L6 0Z" fill="#222222"/>
    </symbol>
    <symbol id="hero-btn" viewBox="0 0 32 32">
      <path d="M32 16c0 8.837-7.163 16-16 16s-16-7.163-16-16c0-8.837 7.163-16 16-16s16 7.163 16 16z"></path>
    </symbol>
  </defs>
</svg>
